<svg height="200" viewBox="0 0 200 200" width="200" xmlns="http://www.w3.org/2000/svg"><g fill="none" fill-rule="evenodd"><g fill="#f4f4f5" stroke="#303846" stroke-width="4"><path d="m90 36h20v20h-20z"/><path d="m128 52h20v20h-20z"/><path d="m144 90h20v20h-20z"/><path d="m128 128h20v20h-20z"/><path d="m90 144h20v20h-20z"/><path d="m52 128h20v20h-20z"/><path d="m36 90h20v20h-20z"/><path d="m52 52h20v20h-20z"/></g><path d="m98 78h4v44h-4z" fill="#303846"/><path d="m78 98h44v4h-44z" fill="#303846"/><path d="m98 78h4v44h-4z" fill="#303846" transform="matrix(.70710678 .70710678 -.70710678 .70710678 100 -41.421356)"/><path d="m78 98h44v4h-44z" fill="#303846" transform="matrix(.70710678 .70710678 -.70710678 .70710678 100 -41.421356)"/></g></svg>