<svg height="200" viewBox="0 0 200 200" width="200" xmlns="http://www.w3.org/2000/svg"><g fill="none" fill-rule="evenodd"><path d="m89 89h21v21h-21z" fill="#f4f4f5" stroke="#303846" stroke-width="4"/><path d="m40 89h21v21h-21z" fill="#f4f4f5" stroke="#303846" stroke-width="4"/><path d="m40 138h21v21h-21z" fill="#f4f4f5" stroke="#303846" stroke-width="4"/><path d="m40 40h21v21h-21z" fill="#f4f4f5" stroke="#303846" stroke-width="4"/><path d="m89 40h21v21h-21z" fill="#f4f4f5" stroke="#303846" stroke-width="4"/><path d="m138 40h21v21h-21z" fill="#f4f4f5" stroke="#303846" stroke-width="4"/><path d="m136 136h25v25h-25z" fill="#f4f4f5"/><g fill="#303846"><path d="m136 136h4v4h-4z"/><path d="m157 136h4v4h-4z"/><path d="m136 157h4v4h-4z"/><path d="m143 157h4v4h-4z"/><path d="m143 136h4v4h-4z"/><path d="m150 157h4v4h-4z"/><path d="m150 136h4v4h-4z"/><path d="m157 157h4v4h-4z"/><path d="m136 150h4v4h-4z"/><path d="m157 150h4v4h-4z"/><path d="m136 143h4v4h-4z"/><path d="m157 143h4v4h-4z"/></g><path d="m87 136h25v25h-25z" fill="#f4f4f5"/><path d="m87 136h4v4h-4z" fill="#303846"/><path d="m108 136h4v4h-4z" fill="#303846"/><path d="m87 157h4v4h-4z" fill="#303846"/><path d="m94 157h4v4h-4z" fill="#303846"/><path d="m94 136h4v4h-4z" fill="#303846"/><path d="m101 157h4v4h-4z" fill="#303846"/><path d="m101 136h4v4h-4z" fill="#303846"/><path d="m108 157h4v4h-4z" fill="#303846"/><path d="m87 150h4v4h-4z" fill="#303846"/><path d="m108 150h4v4h-4z" fill="#303846"/><path d="m87 143h4v4h-4z" fill="#303846"/><path d="m108 143h4v4h-4z" fill="#303846"/><path d="m136 87h25v25h-25z" fill="#f4f4f5"/><path d="m136 87h4v4h-4z" fill="#303846"/><path d="m157 87h4v4h-4z" fill="#303846"/><path d="m136 108h4v4h-4z" fill="#303846"/><path d="m143 108h4v4h-4z" fill="#303846"/><path d="m143 87h4v4h-4z" fill="#303846"/><path d="m150 108h4v4h-4z" fill="#303846"/><path d="m150 87h4v4h-4z" fill="#303846"/><path d="m157 108h4v4h-4z" fill="#303846"/><path d="m136 101h4v4h-4z" fill="#303846"/><path d="m157 101h4v4h-4z" fill="#303846"/><path d="m136 94h4v4h-4z" fill="#303846"/><path d="m157 94h4v4h-4z" fill="#303846"/></g></svg>