<svg xmlns="http://www.w3.org/2000/svg" viewBox="0 0 1326 175"><defs><style>.a{fill:#0080d4;}.b{fill:#212225;}.c{fill:#808182;}</style></defs><title>dhis2developers-logo-rgb-positive</title><path class="a" d="M190,56.48,107.23,2.84a19.73,19.73,0,0,0-20.32,0L6.56,54.93A12,12,0,0,0,6.3,75.56l80.54,54.91a19.39,19.39,0,0,0,20.38.25L190,77.07a11.87,11.87,0,0,0,0-20.59Zm-91,61.45a4.31,4.31,0,0,1-3.5-.05l-77-52.49L95.2,15.63a4.74,4.74,0,0,1,3.73,0l78.91,51.15Z"/><path class="a" d="M86.91,44.32,43.35,72.56,57,81.89,95.2,57.11a4.74,4.74,0,0,1,3.73,0l39.38,25.52,14-9.06L107.23,44.32A19.76,19.76,0,0,0,86.91,44.32Z"/><path class="a" d="M190,98l-8.62-5.59-14,9.06,10.53,6.83L98.93,159.41a4.39,4.39,0,0,1-3.5,0l-77-52.5,10-6.47L14.8,91.07,6.56,96.41A12,12,0,0,0,6.3,117L86.84,172a19.36,19.36,0,0,0,20.38.24L190,118.55A11.87,11.87,0,0,0,190,98Z"/><path class="b" d="M291.65,67.22q-6.91-11-20.62-11a29.31,29.31,0,0,0-22.88,10.39q-9.33,10.69-9.33,27.85t9.78,28.3a30.18,30.18,0,0,0,23.49,10.68q14,0,20.77-13.39L295,131.35h14.6V28.09H291.65Zm0,31.76a18,18,0,0,1-5.26,13.25,16.13,16.13,0,0,1-24.54-1.13q-5.12-6.24-5.12-16.48t5-16.33a15.62,15.62,0,0,1,12.56-6.1q7.53,0,12.05,4.51a18.4,18.4,0,0,1,5.26,12.8Z"/><path class="b" d="M366.92,56.23q-14.46,0-22,13.85v-42H327.18V131.35h17.76V97.48q.3-12.65,5.34-19t12.12-6.32q7.08,0,11,4.14T377.3,88.6v42.75h17.76V88.6q0-14.61-6.85-23.49T366.92,56.23Z"/><rect class="b" x="412.07" y="58.04" width="17.76" height="73.31"/><path class="b" d="M421,24.17q-5.26,0-8.12,2.79a10.11,10.11,0,0,0-2.86,7.6,10.09,10.09,0,0,0,2.86,7.6c1.9,1.86,4.61,2.78,8.12,2.78s6.1-.92,8.06-2.78a10,10,0,0,0,2.93-7.6A10,10,0,0,0,429,27C427.05,25.1,424.37,24.17,421,24.17Z"/><path class="b" d="M492.45,92.06l-17.31-6.47q-8.88-2.57-8.88-7.83,0-3,3.24-5.35c2.15-1.55,5.19-2.33,9.1-2.33s6.93.71,9,2.11a7.35,7.35,0,0,1,3.46,5.72h16.71a20.13,20.13,0,0,0-7.9-15.51q-7.61-6.16-21.68-6.17T455.8,61.88q-8.35,5.64-8.36,15,0,14,17.77,20.17l16,5.71a22.42,22.42,0,0,1,7.08,3.32,6.19,6.19,0,0,1,2.26,5.12c0,2.2-1.23,4.14-3.69,5.79a16.49,16.49,0,0,1-9.41,2.48q-14.89,0-15.2-10.38H445.64q.15,11.6,9,18t23.48,6.39q14.61,0,23.48-6.92,8.6-6.63,8.59-15.65a15.32,15.32,0,0,0-4.6-11.52Q501,94.92,492.45,92.06Z"/><path class="b" d="M542.13,115.09v-3.61a8.64,8.64,0,0,1,2.78-6.55c1.86-1.75,4.89-3.19,9.11-4.29l15.8-3.92q13.24-3.3,19.19-9.4t6-17.24q0-11.13-9.18-18.66-9.48-7.83-24.24-7.83-15.79,0-25.28,6.77Q526.32,57.59,526,71.14h19.72q1.5-12,16.71-12,6.91,0,10.84,3.31a10.44,10.44,0,0,1,3.91,8.29A11.34,11.34,0,0,1,573.81,79q-3.39,3.39-11.67,5.49L547.85,88q-12.2,3-17.76,9.33-5.73,6.77-5.73,19.26v14.76h71.2V115.09Z"/><path class="c" d="M673.66,120Q666.91,133.3,653,133.3a30,30,0,0,1-23.4-10.65q-9.75-11.1-9.75-28.2t9.3-27.75a29.19,29.19,0,0,1,22.8-10.35q13.65,0,20.55,10.95v-39h17.85V131.2H675.76Zm-18.45-47.7a15.61,15.61,0,0,0-12.52,6.08q-5,6.08-5,16.27t5.1,16.43a16.08,16.08,0,0,0,24.45,1.12A17.88,17.88,0,0,0,672.46,99V89.5a18.31,18.31,0,0,0-5.25-12.75Q662.71,72.25,655.21,72.25Z"/><path class="c" d="M766.59,78.1a40.75,40.75,0,0,1,1.87,11.55,67.27,67.27,0,0,1-.6,9.45h-47.1q.3,8.87,4.35,14.4t12.3,5.55q11,0,13.05-9.6h17.85a26.16,26.16,0,0,1-10,17.25q-8.55,6.6-20.85,6.6a31.63,31.63,0,0,1-24.15-10.5q-10.05-10.93-10-28,0-17.55,10-28.2,9.6-10.2,24.15-10.2Q752.56,56.35,761,67A33.33,33.33,0,0,1,766.59,78.1Zm-29-7.65q-7.5,0-11.7,4.88a21.91,21.91,0,0,0-5,12.52H752Q752,76,744.46,72A14.77,14.77,0,0,0,737.56,70.45Z"/><path class="c" d="M795.31,58.3,812,113.65l16.8-55.35h20.4L822,131.2h-20L774.91,58.3Z"/><path class="c" d="M918.39,78.1a40.75,40.75,0,0,1,1.87,11.55,67.27,67.27,0,0,1-.6,9.45h-47.1q.3,8.87,4.35,14.4t12.3,5.55q10.95,0,13-9.6h17.85a26.16,26.16,0,0,1-10.05,17.25q-8.55,6.6-20.85,6.6a31.63,31.63,0,0,1-24.15-10.5q-10-10.93-10-28,0-17.55,10-28.2,9.6-10.2,24.15-10.2,15.15,0,23.55,10.65A33.33,33.33,0,0,1,918.39,78.1Zm-29-7.65q-7.5,0-11.7,4.88a21.91,21.91,0,0,0-4.95,12.52h31q0-11.84-7.5-15.9A14.77,14.77,0,0,0,889.36,70.45Z"/><path class="c" d="M935.41,28.3h17.7V131.2h-17.7Z"/><path class="c" d="M1001.71,56.35a40.39,40.39,0,0,1,13.8,2.33,28.84,28.84,0,0,1,11.1,7.12Q1037,76.3,1037,94.9q0,18.3-10.35,28.8-9.3,9.6-24.9,9.6t-25.2-9.6q-10.35-10.35-10.35-28.8,0-18.75,10.35-29.1Q986,56.35,1001.71,56.35Zm17.55,38.4q0-11.55-4.5-17.32t-12.52-5.78a16.71,16.71,0,0,0-13.13,5.78Q984,83.21,984,94.75t4.58,17.33q4.56,5.78,12.52,5.77a16.62,16.62,0,0,0,13-5.77Q1019.26,106.31,1019.26,94.75Z"/><path class="c" d="M1066.06,68.2q6.9-11.85,21-11.85a30.59,30.59,0,0,1,23.1,10.2q10.2,10.8,10.2,28.2,0,17.55-10.35,28.35-9.6,10.2-23,10.2t-19.5-8v41.4h-17.7V58.3h14.55Zm17.85,49.05a17.5,17.5,0,0,0,6.52-1.35,17.07,17.07,0,0,0,6.08-4.2q6-6.3,6-16.87t-5.18-16.58a16.08,16.08,0,0,0-12.6-6q-7.43,0-12.15,4.28t-5,12.22v13a14.44,14.44,0,0,0,5,11.4A16.75,16.75,0,0,0,1083.91,117.25Z"/><path class="c" d="M1191.38,78.1a40.79,40.79,0,0,1,1.88,11.55,67.27,67.27,0,0,1-.6,9.45h-47.1q.29,8.87,4.35,14.4t12.3,5.55q10.93,0,13-9.6h17.85a26.16,26.16,0,0,1-10,17.25q-8.55,6.6-20.85,6.6a31.63,31.63,0,0,1-24.15-10.5q-10.05-10.93-10-28,0-17.55,10-28.2,9.59-10.2,24.15-10.2,15.15,0,23.55,10.65A33.49,33.49,0,0,1,1191.38,78.1Zm-29-7.65q-7.52,0-11.7,4.88a21.91,21.91,0,0,0-5,12.52h31q0-11.84-7.5-15.9A14.77,14.77,0,0,0,1162.36,70.45Z"/><path class="c" d="M1224.16,72.7Q1230.76,57,1244,57a25.82,25.82,0,0,1,6.45,1l-.3,17.7a39.3,39.3,0,0,0-8.25-.9q-17.7,0-17.7,24.45V131.2h-17.7v-73h17.7Z"/><path class="c" d="M1276.05,109q.3,10.35,15.15,10.35a16.46,16.46,0,0,0,9.38-2.47q3.68-2.47,3.67-5.78A6.16,6.16,0,0,0,1302,106a22.13,22.13,0,0,0-7-3.3l-15.9-5.7q-17.7-6.15-17.7-20.1,0-9.3,8.33-14.92T1292,56.35q14,0,21.6,6.15A20,20,0,0,1,1321.5,78h-16.65a7.3,7.3,0,0,0-3.45-5.7q-3.15-2.1-9-2.1t-9.07,2.33q-3.22,2.33-3.23,5.32,0,5.25,8.85,7.8l17.25,6.45q8.55,2.85,13.13,7.28a15.24,15.24,0,0,1,4.57,11.47q0,9-8.55,15.6-8.85,6.9-23.4,6.9t-23.4-6.37q-8.85-6.37-9-17.93Z"/></svg>
